# xmcd CD database file
#
# Track frame offsets:
#	150
#	13850
#	23087
#	34972
#	50487
#	66195
#	77612
#	90707
#	108685
#
# Disc length: 1872 seconds
#
# Revision: 2
# Processed by: cddbd v1.5.1PL0 Copyright (c) Steve Scherf et al.
# Submitted via: cdripper 1.0.10
#
DISCID=71074e09
DTITLE=Lamont - Thunder Boogie
DYEAR=2003
DGENRE=Country
TTITLE0=hot wire
TTITLE1=vegas
TTITLE2=i saw red
TTITLE3=rocket ride
TTITLE4=one white line
TTITLE5=thunderboogie
TTITLE6=hell's got me runnin
TTITLE7=psychopath
TTITLE8=agent 49
EXTD=YEAR: 2003
EXTT0=
EXTT1=
EXTT2=
EXTT3=
EXTT4=
EXTT5=
EXTT6=
EXTT7=
EXTT8=
PLAYORDER=
